<?xml version="1.0" encoding="utf-8"?>
<!-- Generator: Adobe Illustrator 24.3.0, SVG Export Plug-In . SVG Version: 6.00 Build 0)  -->
<svg version="1.1" id="Layer_1" xmlns="http://www.w3.org/2000/svg" xmlns:xlink="http://www.w3.org/1999/xlink" x="0px" y="0px"
	 viewBox="0 0 3000 3000" style="enable-background:new 0 0 3000 3000;" xml:space="preserve">
<style type="text/css">
	.st0{fill:#754C29;}
	.st1{fill:#A97C50;}
</style>
<path class="st0" d="M1448.28,2214.52L1448.28,2214.52c-585.61,0-1060.35-474.73-1060.35-1060.34v0
	c0-585.61,474.73-1060.34,1060.34-1060.34h0c585.61,0,1060.34,474.73,1060.34,1060.34v0
	C2508.62,1739.79,2033.89,2214.52,1448.28,2214.52z"/>
<g>
	<g>
		<path class="st1" d="M1123.56,1224.71h1162.93c41.45,0,75.06-31.58,75.06-70.53s-33.6-70.53-75.06-70.53H1123.56
			c-41.45,0-75.06,31.58-75.06,70.53S1082.1,1224.71,1123.56,1224.71z"/>
	</g>
	<g>
		<path class="st1" d="M1360.13,1641.06h761.64c41.45,0,75.06-31.58,75.06-70.53c0-38.95-33.6-70.53-75.06-70.53h-761.64
			c-41.45,0-75.06,31.58-75.06,70.53C1285.07,1609.48,1318.68,1641.06,1360.13,1641.06z"/>
	</g>
	<g>
		<path class="st1" d="M1239.15,1438.18h955.31c41.45,0,75.06-31.58,75.06-70.53c0-38.95-33.6-70.53-75.06-70.53h-955.31
			c-41.45,0-75.06,31.58-75.06,70.53C1164.1,1406.6,1197.7,1438.18,1239.15,1438.18z"/>
	</g>
	<g>
		<path class="st1" d="M588.68,937.04h477.92c41.45,0,75.06-31.58,75.06-70.53c0-38.95-33.6-70.53-75.06-70.53H588.68
			c-41.45,0-75.06,31.58-75.06,70.53C513.62,905.46,547.23,937.04,588.68,937.04z"/>
	</g>
	<g>
		<path class="st1" d="M1020.18,912.95l89.68,98.46c27.3,29.31,74.72,32.29,105.91,6.64c31.2-25.65,34.36-70.21,7.07-99.52
			l-89.68-98.46c-27.3-29.32-74.72-32.29-105.91-6.64C996.05,839.08,992.89,883.64,1020.18,912.95z"/>
	</g>
	<g>
		<ellipse class="st1" cx="1514.61" cy="1823.52" rx="120.11" ry="112.86"/>
	</g>
	<g>
		<ellipse class="st1" cx="1861.06" cy="1823.52" rx="120.11" ry="112.86"/>
	</g>
</g>
</svg>
